HIERARCHY
ROOT root
{
	OFFSET	0	13.1	24.9
	CHANNELS 6  Xposition Yposition Zposition Xrotation Yrotation Zrotation
	JOINT spine_1
	{
		OFFSET	0	9.99999	0
		CHANNELS 3  Xrotation Yrotation Zrotation
		JOINT spine_2
		{
			OFFSET	0	112	-10
			CHANNELS 3  Xrotation Yrotation Zrotation
			JOINT spine_3
			{
				OFFSET	0	206.5	19.3
				CHANNELS 3  Xrotation Yrotation Zrotation
				JOINT spine_4
				{
					OFFSET	0	110.4	14.6
					CHANNELS 3  Xrotation Yrotation Zrotation
					JOINT neck_1
					{
						OFFSET	0	71.8	-50.3
						CHANNELS 3  Xrotation Yrotation Zrotation
						JOINT neck_2
						{
							OFFSET	0	86.2	-25.8
							CHANNELS 3  Xrotation Yrotation Zrotation
							JOINT head_ee
							{
								OFFSET	0	179.8	-8.7
								CHANNELS 3  Xrotation Yrotation Zrotation
								End Site
								{
									OFFSET	1	0	0
								}
							}
						}
					}
					JOINT left_clavicle
					{
						OFFSET	-43.2	22.4	-70.8
						CHANNELS 3  Xrotation Yrotation Zrotation
						JOINT left_shoulder
						{
							OFFSET	-93.9	-5.79999	48.7
							CHANNELS 3  Xrotation Yrotation Zrotation
							JOINT left_elbow
							{
								OFFSET	-291.4	-30.8	15.2
								CHANNELS 3  Xrotation Yrotation Zrotation
								JOINT left_lowarm_twist
								{
									OFFSET	-110.7	-3.89999	13.6
									CHANNELS 3  Xrotation Yrotation Zrotation
									JOINT left_hand
									{
										OFFSET	-110.7	-3.89999	13.6
										CHANNELS 3  Xrotation Yrotation Zrotation
										JOINT left_ee
										{
											OFFSET	-80.8	-5.10001	12.1
											CHANNELS 3  Xrotation Yrotation Zrotation
											End Site
											{
												OFFSET	1	0	0
											}
										}
									}
								}
							}
						}
					}
					JOINT right_clavicle
					{
						OFFSET	43.2	22.4	-70.8
						CHANNELS 3  Xrotation Yrotation Zrotation
						JOINT right_shoulder
						{
							OFFSET	93.9	-5.79999	48.7
							CHANNELS 3  Xrotation Yrotation Zrotation
							JOINT right_elbow
							{
								OFFSET	291.4	-30.8	15.2
								CHANNELS 3  Xrotation Yrotation Zrotation
								JOINT right_lowarm_twist
								{
									OFFSET	110.7	-3.89999	13.6
									CHANNELS 3  Xrotation Yrotation Zrotation
									JOINT right_hand
									{
										OFFSET	110.7	-3.89999	13.6
										CHANNELS 3  Xrotation Yrotation Zrotation
										JOINT right_ee
										{
											OFFSET	80.8	-5.10001	12.1
											CHANNELS 3  Xrotation Yrotation Zrotation
											End Site
											{
												OFFSET	1	0	0
											}
										}
									}
								}
							}
						}
					}
				}
			}
		}
	}
	JOINT left_hip
	{
		OFFSET	-82.8	-127.5	0.300001
		CHANNELS 3  Xrotation Yrotation Zrotation
		JOINT left_knee
		{
			OFFSET	-28.2	-396.7	2.2
			CHANNELS 3  Xrotation Yrotation Zrotation
			JOINT left_ankle
			{
				OFFSET	-11.7	-411.3	35.4
				CHANNELS 3  Xrotation Yrotation Zrotation
				JOINT left_toes
				{
					OFFSET	0	-60	-88.6
					CHANNELS 3  Xrotation Yrotation Zrotation
					JOINT left_foot_ee
					{
						OFFSET	-22.5	-16.5	-42.2
						CHANNELS 3  Xrotation Yrotation Zrotation
						End Site
						{
							OFFSET	1	0	0
						}
					}
				}
			}
		}
	}
	JOINT right_hip
	{
		OFFSET	82.8	-127.5	0.300001
		CHANNELS 3  Xrotation Yrotation Zrotation
		JOINT right_knee
		{
			OFFSET	28.2	-396.7	2.2
			CHANNELS 3  Xrotation Yrotation Zrotation
			JOINT right_ankle
			{
				OFFSET	11.7	-411.3	35.4
				CHANNELS 3  Xrotation Yrotation Zrotation
				JOINT right_toes
				{
					OFFSET	0	-60	-88.6
					CHANNELS 3  Xrotation Yrotation Zrotation
					JOINT right_foot_ee
					{
						OFFSET	22.5	-16.5	-42.2
						CHANNELS 3  Xrotation Yrotation Zrotation
						End Site
						{
							OFFSET	1	0	0
						}
					}
				}
			}
		}
	}
}
MOTION
Frames: 6
Frame Time: 0.02
3177.02 653.055 -1669.29 -62.6862931319 80.2089711417 66.682602337 5.24564 0.347186 0.493535 5.24572 0.315078 0.514626 5.24846 0.251134 0.548676 5.2482 0.334634 0.50213 -14.5693 4.57842 0.758184 -14.6234 8.29142 2.2039 -0.0 0.0 -0.0 0.115993 23.0629 2.83074 -39.383 -20.4416 64.6065 0.263677 -7.44189 0.017148 -62.2223 -5.56035 5.16497 3.70709 28.6325 33.4598 -0.0 0.0 -0.0 10.8385 -1.41631 -21.3039 8.98948 16.5921 -75.3203 1.28982 32.5746 -0.376874 -32.6717 2.20763 -3.48623 2.28214 16.9143 -8.08239 0.0 0.0 0.0 38.4228 5.39421 -15.9983 0.815102 -0.0344218 -0.120344 -12.2847 -28.7887 2.31554 -6.01913 0.0 0.0 -0.0 0.0 -0.0 -9.09912 7.04605 -10.057 -6.25888 -0.206633 -0.937852 39.2655 -1.22209 4.80433 -1.33217 0.0 0.0 0.0 0.0 0.0 
3154.03746288 653.044 -1667.29072823 -60.1668767001 79.5452041339 64.5584663662 5.37435 0.28439 0.498911 5.37445 0.252067 0.515995 5.37661 0.189623 0.542062 5.3763 0.272851 0.505313 -15.0676 4.61474 0.832515 -15.1258 8.33391 2.32323 -0.0 0.0 -0.0 0.318186 23.9057 3.19376 -39.2701 -20.2703 64.273 0.284952 -8.0348 0.0200128 -62.9282 -5.649 5.18297 3.89123 29.2499 34.7862 -0.0 0.0 -0.0 10.841 -0.948331 -21.3421 8.16391 16.9018 -75.061 1.23439 31.4437 -0.347491 -32.2345 2.16567 -3.44902 2.45555 19.0112 -8.25957 0.0 0.0 0.0 36.7296 5.18202 -16.6905 1.75624 -0.0762947 -0.258685 -10.5888 -28.7393 1.99003 -4.9313 0.0 0.0 -0.0 0.0 -0.0 -9.82915 7.22735 -9.90085 -6.87455 -0.221394 -1.03118 38.3005 -0.369393 4.7241 -0.573426 0.0 0.0 0.0 0.0 0.0 
3141.97169875 654.176 -1664.49635008 -55.7760566829 78.2597919372 60.2103786834 5.48803 0.338579 0.484601 5.48811 0.307056 0.505163 5.49072 0.246578 0.537283 5.49047 0.328336 0.491599 -14.4833 4.63607 0.371528 -14.5427 8.63133 1.85088 -0.0 0.0 -0.0 0.57771 24.1104 3.56426 -38.5329 -20.2144 64.4036 0.33532 -9.43135 0.0276608 -61.408 -5.45836 5.14285 4.11669 28.309 36.2786 -0.0 0.0 -0.0 11.0237 -1.12746 -21.7098 7.34494 16.2426 -74.4378 1.18872 30.4908 -0.323989 -32.9646 2.2359 -3.51097 2.28517 16.9156 -8.10221 0.0 0.0 0.0 36.8786 4.17671 -17.0234 0.896717 -0.0379626 -0.132368 -12.1241 -28.8867 2.28782 -4.07724 0.0 0.0 -0.0 0.0 -0.0 -10.5928 7.2719 -9.64423 -5.33812 -0.182687 -0.798579 38.0762 -1.23088 4.69853 0.00293479 -0.0 -0.0 0.0 0.0 0.0 
3141.96424456 654.176 -1664.55116994 -55.4210792814 78.2091642076 59.8477833348 5.48803 0.338579 0.484601 5.48811 0.307056 0.505163 5.49072 0.246578 0.537283 5.49047 0.328336 0.491599 -14.4833 4.63607 0.371528 -14.5427 8.63133 1.85088 -0.0 0.0 -0.0 0.57771 24.1104 3.56426 -38.5329 -20.2144 64.4036 0.33532 -9.43135 0.0276608 -61.408 -5.45836 5.14285 4.11669 28.309 36.2786 -0.0 0.0 -0.0 11.0237 -1.12746 -21.7098 7.34494 16.2426 -74.4378 1.18872 30.4908 -0.323989 -32.9646 2.2359 -3.51097 2.28517 16.9156 -8.10221 0.0 0.0 0.0 36.8786 4.17671 -17.0234 0.896717 -0.0379626 -0.132368 -12.1241 -28.8867 2.28782 -4.07724 0.0 0.0 -0.0 0.0 -0.0 -10.5928 7.2719 -9.64423 -5.33812 -0.182687 -0.798579 38.0762 -1.23088 4.69853 0.00293479 -0.0 -0.0 0.0 0.0 0.0 
3097.48832206 660.021 -1657.19787017 -54.1377365998 78.2965095291 58.8142165012 5.45234 0.28536 0.851566 5.45271 0.230597 0.867996 5.45582 0.128131 0.888917 5.45482 0.266905 0.857529 -14.0419 4.07227 -1.62119 -14.0925 8.75722 -0.252754 -0.0 0.0 -0.0 1.48722 23.4432 4.74958 -35.762 -21.2225 62.2738 0.280254 -7.90401 0.0193614 -55.3278 -4.70808 4.93213 4.58297 23.181 39.1822 -0.0 0.0 -0.0 10.7412 -2.86625 -20.9938 4.09526 15.6892 -73.9434 1.14786 29.6223 -0.303526 -35.04 2.43977 -3.68215 2.24626 10.8627 -10.5941 0.0 0.0 0.0 35.193 3.22202 -16.7106 -5.93816 0.198547 0.889298 -2.66815 -26.0027 0.476746 0.448887 -0.0 -0.0 -0.0 0.0 -0.0 -11.2724 7.23897 -9.27967 -8.17296 -0.249231 -1.22848 38.544 -2.36148 4.73506 -3.12099 0.0 0.0 0.0 0.0 0.0 
3070.55109933 660.78 -1658.25048958 -46.4661784606 78.1072286767 51.2707389242 5.39168 0.382768 0.850214 5.39203 0.327893 0.872845 5.39667 0.223282 0.90527 5.39571 0.363445 0.858651 -13.852 4.22062 -1.0971 -13.9044 8.72009 0.277309 -0.0 0.0 -0.0 1.72409 23.9666 5.10523 -34.7893 -21.9085 60.2136 0.334614 -9.41185 0.0275452 -53.4343 -4.47935 4.85035 4.6157 20.4637 39.0062 -0.0 0.0 -0.0 10.6452 -2.63196 -20.8161 1.44736 15.0944 -73.731 1.0873 28.3069 -0.274198 -35.3954 2.4753 -3.71072 2.02977 6.86624 -10.8502 0.0 0.0 0.0 34.7501 2.52602 -17.3139 -12.1499 0.306574 1.8359 1.58115 -26.5612 -0.281053 2.44589 -0.0 -0.0 -0.0 0.0 -0.0 -11.2272 7.16407 -9.05464 -10.7509 -0.291212 -1.6218 40.6121 -4.4235 4.91052 -1.92603 0.0 0.0 0.0 0.0 0.0 
